<?xml version="1.0" encoding="UTF-8"?>
<svg version="1.1" xmlns="http://www.w3.org/2000/svg" width="32" height="32">
<path d="M0 0 C10.56 0 21.12 0 32 0 C32 10.56 32 21.12 32 32 C21.44 32 10.88 32 0 32 C0 21.44 0 10.88 0 0 Z " fill="#D2AC8E" transform="translate(0,0)"/>
<path d="M0 0 C10.56 0 21.12 0 32 0 C32 10.56 32 21.12 32 32 C30.35 32 28.7 32 27 32 C26.71125 31.030625 26.4225 30.06125 26.125 29.0625 C25.35785318 25.89335797 25.35785318 25.89335797 23 25 C23.103125 23.88625 23.20625 22.7725 23.3125 21.625 C23.34822074 14.9452215 19.60144876 9.40217313 16 4 C9.99921625 4.59780094 9.99921625 4.59780094 4.0625 5.625 C2 6 2 6 0 5 C0 3.35 0 1.7 0 0 Z " fill="#26201B" transform="translate(0,0)"/>
<path d="M0 0 C1.98 0.99 1.98 0.99 4 2 C4 3.98 4 5.96 4 8 C5.98 7.67 7.96 7.34 10 7 C9.2265625 8.11375 9.2265625 8.11375 8.4375 9.25 C6.75057228 11.83215454 6.75057228 11.83215454 7.3125 14.3125 C7.539375 14.869375 7.76625 15.42625 8 16 C8.99 16 9.98 16 11 16 C11.33 15.34 11.66 14.68 12 14 C12.66 14 13.32 14 14 14 C14.33 14.66 14.66 15.32 15 16 C16.32 15.67 17.64 15.34 19 15 C19 13.68 19 12.36 19 11 C19.66 11 20.32 11 21 11 C21.19021635 15.75540866 21.19550651 19.70878274 19 24 C13 26 13 26 0 26 C0 17.42 0 8.84 0 0 Z " fill="#AA7656" transform="translate(0,6)"/>
<path d="M0 0 C1.65 0.33 3.3 0.66 5 1 C5 1.66 5 2.32 5 3 C6.32 3.33 7.64 3.66 9 4 C8.67 6.64 8.34 9.28 8 12 C8.99 12.33 9.98 12.66 11 13 C11.33 14.98 11.66 16.96 12 19 C7.38 19 2.76 19 -2 19 C-1.67 18.34 -1.34 17.68 -1 17 C0.65 17 2.3 17 4 17 C4.73832608 12.67551867 5.39174965 8.34464536 6 4 C5.34 4 4.68 4 4 4 C4.20625 4.61875 4.4125 5.2375 4.625 5.875 C4.74875 6.57625 4.8725 7.2775 5 8 C4.34 8.66 3.68 9.32 3 10 C0.875 9.625 0.875 9.625 -1 9 C-1 8.34 -1 7.68 -1 7 C-1.66 7 -2.32 7 -3 7 C-3 7.66 -3 8.32 -3 9 C-4.32 8.67 -5.64 8.34 -7 8 C-6.67 6.35 -6.34 4.7 -6 3 C-3.69 3 -1.38 3 1 3 C0.67 2.01 0.34 1.02 0 0 Z " fill="#BA8F79" transform="translate(15,13)"/>
<path d="M0 0 C4.875 1.75 4.875 1.75 6 4 C5.33333333 5.33333333 4.66666667 6.66666667 4 8 C3.61709538 9.99110401 3.27395385 11.99100513 3 14 C3.99 14 4.98 14 6 14 C6 11.36 6 8.72 6 6 C6.99 6 7.98 6 9 6 C9 10.95 9 15.9 9 21 C7.35 21 5.7 21 4 21 C3.71125 20.030625 3.4225 19.06125 3.125 18.0625 C2.35785318 14.89335797 2.35785318 14.89335797 0 14 C0.020625 12.783125 0.04125 11.56625 0.0625 10.3125 C0.07399832 7.06997349 -0.32628103 4.1761037 -1 1 C-0.67 0.67 -0.34 0.34 0 0 Z " fill="#76614E" transform="translate(23,11)"/>
<path d="M0 0 C1.98 0.99 1.98 0.99 4 2 C4 3.98 4 5.96 4 8 C5.98 7.67 7.96 7.34 10 7 C9.484375 7.680625 8.96875 8.36125 8.4375 9.0625 C6.5900846 12.8376532 7.2725912 14.92651074 8 19 C7.5625 21.9375 7.5625 21.9375 7 24 C6.34 24 5.68 24 5 24 C4.04738513 19.23692563 3.91666643 14.8333472 4 10 C3.34 10 2.68 10 2 10 C2 12.64 2 15.28 2 18 C1.34 18.33 0.68 18.66 0 19 C0 12.73 0 6.46 0 0 Z " fill="#D18E63" transform="translate(0,6)"/>
<path d="M0 0 C0.99 0.99 1.98 1.98 3 3 C3 2.01 3 1.02 3 0 C4.32 0.33 5.64 0.66 7 1 C7 4.3 7 7.6 7 11 C6.01 11 5.02 11 4 11 C4 13.64 4 16.28 4 19 C3.01 19 2.02 19 1 19 C0.80377759 14.78121808 1.19769832 11.82989106 3 8 C-0.3863251 6.49069817 -0.3863251 6.49069817 -4 6 C-2.84826645 3.53199953 -1.95216435 1.95216435 0 0 Z " fill="#391C07" transform="translate(25,6)"/>
<path d="M0 0 C0.66 0.33 1.32 0.66 2 1 C1.67 2.65 1.34 4.3 1 6 C1.99 6.33 2.98 6.66 4 7 C4.33 8.98 4.66 10.96 5 13 C0.38 13 -4.24 13 -9 13 C-8.67 12.34 -8.34 11.68 -8 11 C-6.35 11 -4.7 11 -3 11 C-3 10.01 -3 9.02 -3 8 C-2.34 8 -1.68 8 -1 8 C-0.67 5.36 -0.34 2.72 0 0 Z " fill="#D2B292" transform="translate(22,19)"/>
<path d="M0 0 C4.875 1.75 4.875 1.75 6 4 C5.71125 4.556875 5.4225 5.11375 5.125 5.6875 C3.64514296 8.72942835 3.38529988 11.66073437 3 15 C2.01 14.67 1.02 14.34 0 14 C0.020625 12.783125 0.04125 11.56625 0.0625 10.3125 C0.07399832 7.06997349 -0.32628103 4.1761037 -1 1 C-0.67 0.67 -0.34 0.34 0 0 Z " fill="#56391E" transform="translate(23,11)"/>
<path d="M0 0 C0.66 0 1.32 0 2 0 C2.33 4.62 2.66 9.24 3 14 C2.01 14 1.02 14 0 14 C0 14.66 0 15.32 0 16 C-0.66 16 -1.32 16 -2 16 C-2.04241723 13.66705225 -2.04092937 11.33297433 -2 9 C-1.67 8.67 -1.34 8.34 -1 8 C-0.76924918 6.65252916 -0.58846937 5.29622435 -0.4375 3.9375 C-0.293125 2.638125 -0.14875 1.33875 0 0 Z " fill="#D7B090" transform="translate(2,16)"/>
<path d="M0 0 C1.98 0.99 1.98 0.99 4 2 C4.042721 3.66611905 4.04063832 5.33382885 4 7 C3.67 7.33 3.34 7.66 3 8 C2.71778828 10.58022142 2.55179803 13.16030185 2.37890625 15.75 C2.25386719 16.4925 2.12882813 17.235 2 18 C1.34 18.33 0.68 18.66 0 19 C0 12.73 0 6.46 0 0 Z " fill="#281914" transform="translate(0,6)"/>
<path d="M0 0 C3.3 0.33 6.6 0.66 10 1 C10 1.99 10 2.98 10 4 C7.24075815 5.80411967 6.11027897 6.0127245 2.75 5.625 C1.8425 5.41875 0.935 5.2125 0 5 C0 3.35 0 1.7 0 0 Z " fill="#795D3B" transform="translate(0,0)"/>
<path d="M0 0 C2.31 0.33 4.62 0.66 7 1 C6.34 2.65 5.68 4.3 5 6 C1.37 6 -2.26 6 -6 6 C-6 5.34 -6 4.68 -6 4 C-4.35 3.67 -2.7 3.34 -1 3 C-0.67 2.01 -0.34 1.02 0 0 Z " fill="#AE7A55" transform="translate(8,26)"/>
<path d="M0 0 C0.99 0.33 1.98 0.66 3 1 C2.34 1 1.68 1 1 1 C1 1.66 1 2.32 1 3 C1.62648438 3.06058594 2.25296875 3.12117187 2.8984375 3.18359375 C3.71570313 3.26738281 4.53296875 3.35117188 5.375 3.4375 C6.59316406 3.55931641 6.59316406 3.55931641 7.8359375 3.68359375 C10 4 10 4 12 5 C12 5.66 12 6.32 12 7 C11.41992188 6.91621094 10.83984375 6.83242187 10.2421875 6.74609375 C5.57684697 6.13790579 1.64557883 5.92794335 -3 7 C-3.1875 4.625 -3.1875 4.625 -3 2 C-2.01 1.34 -1.02 0.68 0 0 Z " fill="#F2D1B3" transform="translate(8,5)"/>
<path d="M0 0 C2.475 0.495 2.475 0.495 5 1 C5 1.66 5 2.32 5 3 C6.32 3.33 7.64 3.66 9 4 C8.67 4.99 8.34 5.98 8 7 C7.32811503 9.33183607 6.66084583 11.66501142 6 14 C5.34 13.67 4.68 13.34 4 13 C4.66 10.03 5.32 7.06 6 4 C5.34 4 4.68 4 4 4 C4.33 5.32 4.66 6.64 5 8 C3.02 8.99 3.02 8.99 1 10 C1.66 7.69 2.32 5.38 3 3 C2.34 3 1.68 3 1 3 C0.67 2.01 0.34 1.02 0 0 Z " fill="#C99B78" transform="translate(15,13)"/>
<path d="M0 0 C1.97610386 2.04424538 3 3.1176825 3 6 C-0.63 5.34 -4.26 4.68 -8 4 C-8 3.34 -8 2.68 -8 2 C-4.77856724 -0.14762184 -3.7404533 -0.561068 0 0 Z " fill="#E3B889" transform="translate(17,4)"/>
<path d="M0 0 C1.98 0 3.96 0 6 0 C7.125 4.75 7.125 4.75 6 7 C5.01 5.68 4.02 4.36 3 3 C2.54625 3.495 2.0925 3.99 1.625 4.5 C0 6 0 6 -2 6 C-2.33 5.01 -2.66 4.02 -3 3 C-2.34 3 -1.68 3 -1 3 C-0.67 2.01 -0.34 1.02 0 0 Z " fill="#643E1B" transform="translate(22,4)"/>
<path d="M0 0 C0.66 0 1.32 0 2 0 C1.67 3.3 1.34 6.6 1 10 C0.01 10 -0.98 10 -2 10 C-2.17942163 6.05272412 -2.09350689 3.4019487 0 0 Z " fill="#240D00" transform="translate(28,15)"/>
<path d="M0 0 C0.99 0 1.98 0 3 0 C3 2.31 3 4.62 3 7 C2.01 7.33 1.02 7.66 0 8 C-1.09658936 4.71023192 -0.79953138 3.28696233 0 0 Z " fill="#BE855E" transform="translate(5,22)"/>
<path d="M0 0 C1.22589844 0.01353516 1.22589844 0.01353516 2.4765625 0.02734375 C3.41628906 0.04474609 3.41628906 0.04474609 4.375 0.0625 C2.20318742 2.51956557 1.73612209 3.02565081 -1.6875 3.375 C-4.625 3.0625 -4.625 3.0625 -6.625 1.0625 C-4.21954362 -0.14022819 -2.67503047 -0.03821472 0 0 Z " fill="#84573D" transform="translate(14.625,23.9375)"/>
<path d="M0 0 C2.3828125 0.2421875 2.3828125 0.2421875 5.125 0.875 C6.03507812 1.07867187 6.94515625 1.28234375 7.8828125 1.4921875 C8.58148438 1.65976563 9.28015625 1.82734375 10 2 C10 2.66 10 3.32 10 4 C4.06 3.01 4.06 3.01 -2 2 C-1.34 1.34 -0.68 0.68 0 0 Z " fill="#F3DBBD" transform="translate(10,8)"/>
<path d="M0 0 C2.3125 -0.25 2.3125 -0.25 5 0 C6.97610386 2.04424538 8 3.1176825 8 6 C7.01 5.67 6.02 5.34 5 5 C4.67 4.34 4.34 3.68 4 3 C1.97536745 2.34786708 1.97536745 2.34786708 0 2 C0 1.34 0 0.68 0 0 Z " fill="#DBC4AF" transform="translate(12,4)"/>
<path d="M0 0 C0.66 0 1.32 0 2 0 C2 1.32 2 2.64 2 4 C-0.64 4 -3.28 4 -6 4 C-5.67 3.34 -5.34 2.68 -5 2 C-3.35 2 -1.7 2 0 2 C0 1.34 0 0.68 0 0 Z " fill="#C9956C" transform="translate(19,28)"/>
<path d="M0 0 C0.66 0 1.32 0 2 0 C2 2.64 2 5.28 2 8 C1.01 7.67 0.02 7.34 -1 7 C-0.67 4.69 -0.34 2.38 0 0 Z " fill="#5C4633" transform="translate(24,18)"/>
<path d="M0 0 C1.98 0 3.96 0 6 0 C6.33 0.66 6.66 1.32 7 2 C6.030625 2.12375 5.06125 2.2475 4.0625 2.375 C3.051875 2.58125 2.04125 2.7875 1 3 C0.67 3.66 0.34 4.32 0 5 C0 3.35 0 1.7 0 0 Z " fill="#73624E" transform="translate(0,0)"/>
<path d="M0 0 C0.66 0 1.32 0 2 0 C1.34 1.65 0.68 3.3 0 5 C-1.65 5 -3.3 5 -5 5 C-3.625 3.5 -3.625 3.5 -2 2 C-1.34 2 -0.68 2 0 2 C0 1.34 0 0.68 0 0 Z " fill="#B27245" transform="translate(13,27)"/>
</svg>
